<svg xmlns="http://www.w3.org/2000/svg" width="2085" height="601.888"><defs><style>.a{fill:transparent}.b{fill:#91703f}</style></defs><path class="a" d="M0 0h695v601.887H0z"/><path class="b" d="M28.889 600.826l-1.839 1.062h7.76l-1.838-1.062 17.954-10.366-.019 11.423h1.974l.026-12.569 25.72-14.849 15.83 27.417h177.579l-.01-.007 51.1-29.683 19.472 11.242-31.951 18.449h4.084l28.889-16.679v16.679h2.042v-16.679l1.839 1.061-1.43-2.476-.409-.708-2.042-3.537v2.123l-18.458-10.657 20.3-11.789v21.384l-1.838-1.062 1.429 2.476.409.708 2.042 3.536v-2.122l28.889 16.679-1.839 1.062h7.76l-1.838-1.062 17.953-10.366-.022 11.429h1.974l.026-12.569 25.72-14.849 15.83 27.417h177.579l-.01-.007 51.105-29.683 19.472 11.242-31.956 18.449h4.084l28.888-16.679v16.679h2.042v-16.679l1.839 1.061-1.43-2.476-.409-.708-2.042-3.537v2.123l-18.458-10.657 20.3-11.789v21.384l-1.838-1.062 1.429 2.476.409.708 2.042 3.536V416.876l-1.839 1.062v-33.355l1.839 1.061V216.247l-2.042 3.536-.409.708-1.429 2.476 1.838-1.062v20.778l-19.91-11.4 18.072-10.434v2.123l2.042-3.537.409-.708 1.43-2.476-1.839 1.061v-33.358l1.839 1.061V15.621l-1.839 1.062V.004h-2.042v16.678L662.235.004h-4.084l31.952 18.447-19.1 11.028L619.536.004H441.952l-15.83 27.417-25.772-14.88.026-12.537h-1.969l-.024 11.4-17.906-10.338 1.838-1.061h-7.76l1.839 1.061-28.889 16.679v-2.123l-1.839 1.062V.005h-2.042v16.678L314.735.005h-4.084l31.952 18.447-19.1 11.028L272.036.005h-3.307l26.456 45.824-20.378 11.754-32.5-56.6h26.417v-.987H94.452l-15.83 27.417-25.772-14.88.027-12.537h-1.97l-.024 11.4L32.977 1.058l1.838-1.061h-7.76l1.839 1.061L.005 17.737v3.537l31.952 18.448V2.827l18.921 10.924-.128 58.532L0 43.217v2.275l49.748 28.492H0v2.042h51.769l13.377 23.3H0v1.974h66.281l33.068 57.585L79.37 170.42l-26.457-45.824h-.316c-.02-.014-.035-.031-.057-.044a.988.988 0 00-.989 0l-.072.042H0v2.042h47.963L0 154.495v2.283l51.057-29.656-.125 59.715-18.979 10.958V160.9L.001 179.348v3.537l28.889 16.679-1.839 1.062 1.839 1.061L.001 218.366v3.537l31.952 18.448v-36.895l18.921 10.924-.123 58.534-50.75-29.066v2.275l49.748 28.492H.001v2.042H51.77l13.378 23.3H.002v1.974h66.281l33.068 57.586-19.979 11.535-26.457-45.824h-.316c-.02-.014-.035-.032-.057-.044a.987.987 0 00-.989 0l-.072.042H.002v2.042h47.963L.002 355.127v2.283l51.057-29.655-.125 59.715-18.979 10.958v-36.895L0 379.983v3.537l28.889 16.679-1.839 1.062 1.839 1.061L0 419.001v3.537l31.952 18.448v-36.903l18.921 10.924-.123 58.534L0 444.475v2.274l49.748 28.492H0v2.042h51.769l13.378 23.3H.001v1.974h66.281l33.068 57.586-19.98 11.54-26.457-45.824h-.317c-.02-.014-.035-.031-.056-.043a.985.985 0 00-.989 0l-.072.042H0v2.042h47.963L0 555.759v2.283l51.057-29.659-.125 59.715-18.979 10.958v-36.893L.001 580.611v3.537zm1.021-202.4L1.022 381.747l28.885-16.676zm0 39.017L1.022 420.765l28.885-16.682zm21.017-47.615l-.048 22.827-17.906-10.338 1.838-1.061-1.838-1.062zm-21.02-192.029L1.019 181.12l28.888-16.679zm0 39.017L1.019 220.138l28.888-16.679zm21.017-47.615l-.048 22.826-17.906-10.338 1.838-1.061-1.838-1.062zM29.907 36.183L1.019 19.505 29.907 2.83zm38.647 466.372h26.987l25.887 44.837-20.372 11.762zm101.313-23.325l1.4 2.42-1.4-2.42v2.122l-17.709-10.224 19.549-11.345V480.3zm-31-102.26h32.84v23.3h-46.68l-22.953-39.971 20.377-11.764 16.419 28.439 1.178-2.042-15.829-27.417 25.6-14.78 21.889 12.536v29.662h-31.659zm31-53.692l1.838-1.062v20.776l-19.911-11.4 18.072-10.434v2.125l1.838-3.185-.409.708zm-45.416-120.675l13.56 23.614.151-.086-15.714 27.217-20.38-11.767zm-24.092 37.991l-19.972-11.531 15.849-27.451h26.508zm22.837 15.543l24.206 13.975-48.559 28.2zm26.177 15.114l19.473 11.242-31.949 18.45 31.952 18.448-19.1 11.028-51.477-29.481zm-1.606 60.307l-24.571 14.186-24.374-42.217zm22.1-47.3v33.358l-28.889-16.679zM124.451 403.23l13.56 23.614.151-.086-15.71 27.225-20.38-11.767zm-24.092 37.991l-19.972-11.53 15.849-27.451h26.508zm22.837 15.543l24.955 14.408-50.061 29.077zm48.51-54.525v23.3h-32.168l-13.379-23.3zm0 25.338v29.912l-21.519 12.5-25.969-14.994 15.829-27.417-.825-1.429.825 1.429zm-1.838 90.668l-28.889-16.679 28.889-16.679zm-1.021 1.769l-19.521 11.271-50.724-29.05 51.521-29.925 18.724 10.81-31.95 18.453zm-21.5 12.412l-24.15 13.943-23.955-41.486zm-78.8-31.847l32.5-56.6 20.376 11.764-25.88 44.84zm-15.072-24.28l25.89-44.842L99.34 442.99l-32.5 56.589zm-.635-60.155l24.756 14.293-24.877 43.087zm24.756-44.078l-24.689 14.263.119-56.822zm16.851 29.186l-15.83 27.417-25.772-14.88.052-25.106 25.72-14.849zm5.918-39.969l22.386 38.984H96.239L80.39 372.816zm-31.809-59.357h26.987l25.887 44.837-20.372 11.762zm0-1.974l32.5-56.6 20.375 11.764-25.887 44.837zm-15.072-24.28l25.89-44.842 19.975 11.533-32.5 56.589zm-.635-60.155l24.756 14.293-24.877 43.087zm24.756-44.078L52.907 185.7l.119-56.822zm16.851 29.186l-15.83 27.417-25.772-14.88.052-25.106 25.72-14.849zm5.913-39.971l22.386 38.984H96.243l-15.849-27.451zm-31.808-59.357h26.986l25.887 44.837-20.372 11.762zm100.291 17.46l-19.1 11.028-51.477-29.482 51.1-29.683 19.473 11.242-31.952 18.447zm-27.868-18.448l28.889-16.679v33.358zm-42.135-2.623l24.353-42.18 24.205 13.977zm48.923 33.241l-24.57 14.185-24.374-42.217zm-79.226-31.6l32.355-56.691 20.531 11.854-25.887 44.837zm9.058-70.142L52.727 72.272l.121-57.381zm1.769 1.02l19.82 11.443L66.849 98.32 53.485 75.047zM122.4.986l-22.2 38.889-19.811-11.438L96.238.986zm1.136 0zm.57.992l13.785 24.005-15.437 26.738-20.547-11.858zm47.6 22.3h-32.52L125.808.978h45.9zm0 31.087l-22.268 12.934-25.221-14.561 15.829-27.417-.559-.968.56.968h31.66zm-1.838 22.606l1.429 2.476.409.708-1.838-3.184v2.123l-18.461-10.652 20.3-11.788v21.383zm1.838 64.391l-19.911-11.4 18.072-10.434v2.123l1.838-3.185-.409.708-1.429 2.476 1.838-1.062zm0 57.275h-46.68l-22.953-39.971 20.377-11.764 16.419 28.439 1.178-2.042-15.827-27.416 25.6-14.78 21.889 12.536v29.662H140.05l-1.179 2.042h32.836zm0 25.271h-32.168l-13.378-23.3h45.547zm0 31.087l-22.268 12.934-25.221-14.561 15.829-27.417-.825-1.428.825 1.429h31.661zm2.042 224.3v-21.7l51.389-29.849-.123 58.848-19.314 11.151V461.85zm29.909-14.91v33.358l-28.888-16.679zm0 39.017v33.358l-28.886-16.677zm4.9-2.83l-1.839-1.062 18.288-10.559-.048 23.212-18.24-10.53zm-34.811-45.263v-28.726h49.461zm0-30.768v-23.3h66.281l33.068 57.586-19.979 11.535-26.457-45.824zm138.87 51.747h32.838v23.3h-46.68l-22.953-39.971 20.377-11.764 16.419 28.438 1.178-2.042-15.829-27.417 25.6-14.78 21.889 12.536v29.661h-31.659zm31-98.369l1.429 2.476.409.708.4.691-.2-.339-2.042-3.537v2.123l-18.45-10.658 20.3-11.788v21.388zm-31-102.26h32.838v23.3h-46.68l-22.949-39.976 20.377-11.764 16.419 28.438 1.178-2.042-15.829-27.417 25.6-14.78 21.889 12.536v29.661H313.8zm31-98.369l1.429 2.476.409.708.354.613-.151-.261-2.042-3.537v2.123l-18.458-10.657 20.3-11.789v21.384zM252.368 72.896l15.83 27.417-15.83 27.417-25.772-14.88.052-25.106zm-25.71 12.487l.119-56.822 24.574 42.565zm25.714 188.14l15.83 27.417-15.83 27.417-25.772-14.88.052-25.106zm-25.714 12.489l.119-56.822 24.574 42.565zm15.649 116.23h26.987l25.887 44.837-20.374 11.765zm54.195 98.341H269.99l-15.849-27.451 19.975-11.533zm-23.927-96.742l48.945 28.032-24.571 14.186zm-30.273-3.573l32.5-56.6 20.376 11.764-25.887 44.837zm55.9-97.349l13.56 23.614.151-.087-15.714 27.217-20.38-11.766zm-24.092 37.99l-19.97-11.526 15.849-27.451h26.508zm22.836 15.543l24.207 13.975-48.559 28.2zm-56.349 42.817l-13.369-23.28 25.889-44.841 19.975 11.533zm-14.125-26.055l.12-57.38 24.756 14.293zm27.665-100.711l19.975-11.533 22.386 38.984h-26.512zm-11.83-70.887h26.987l25.887 44.837-20.374 11.762zm30.268 1.6l48.944 28.031-24.571 14.186zm-3.281-3.573h-26.987l32.5-56.6 20.373 11.763zm27.655-43.816l24.207 13.976-48.559 28.2zm-56.342 42.824l-13.374-23.289 25.889-44.841 19.978 11.535zm-14.132-26.068l.12-57.381 24.756 14.293zm43.514-71.286h26.508l-22.382 38.986-19.974-11.532zm28.215.991l13.56 23.614.151-.087-15.714 27.217-20.377-11.765zm1.707-.991h45.547v23.3h-32.169zm45.547 25.338v29.048l-22.268 12.933-25.221-14.561 15.829-27.417-.824-1.429.825 1.429zm-1.838 90.667l-28.889-16.678 28.889-16.679zm-1.021 1.769l-19.1 11.028-51.477-29.482 51.1-29.684 19.472 11.242-31.952 18.448zm2.86 82.854v23.3H313.29l-13.383-23.295zm0 25.339v29.044l-22.268 12.934-25.221-14.559 15.829-27.417-.824-1.429.825 1.429zm-1.838 90.668l-28.889-16.678 28.889-16.679zm-1.021 1.769l-19.1 11.028-51.477-29.481 51.1-29.683 19.472 11.242-31.952 18.448zm-44.963 82.854zm47.823 0v23.3h-32.169l-13.384-23.296zm-33.543 24.519l-15.714 27.217-20.41-11.783 22.412-38.961 13.56 23.614zm-37.833 14.446l-19.942-11.513 15.849-27.452h26.507zm-21.71-12.534l-25.438-14.687.053-25.492 25.385-14.656 15.83 27.417zm-25.381-42.539l.117-56.053 24.242 41.989zm24.359 44.307l-24.545 42.511.118-56.607zm-77.6-130.487v-23.3h51.769l13.378 23.3zm34.811-99.328l-1.839-1.062 17.954-10.365-.049 22.827-17.906-10.338zm-34.811 73.989v-28.492l49.749 28.492zm0-30.767v-21.945l31.952 18.447v-36.89l18.921 10.925-.123 58.534zm1.021-23.713l28.888-16.679v33.358zm-1.021-40.786v-22.57l51.056-29.655-.125 59.715-18.979 10.958v-36.895zm29.909-14.91v33.358l-28.888-16.679zm-29.909-9.942v-27.859h47.963zm0-29.9v-23.3h66.281l33.068 57.586-19.979 11.535-26.457-45.824h-.317c-.02-.013-.036-.031-.056-.043a.987.987 0 00-.989 0l-.072.042zm0-25.271v-23.3h51.769l13.378 23.3zM224.808 26.81l-.125 59.715-18.981 10.958V60.588L173.75 79.035v-22.57zM173.75 54.183V26.324h47.963zm29.909 9.942v33.358l-28.888-16.679zm0 39.017V136.5l-28.888-16.679zm4.9-2.83l-1.839-1.062 17.957-10.367-.049 22.826-17.906-10.338 1.839-1.062zm-34.811 73.989v-28.492l49.748 28.492zm0-30.767v-21.945l31.952 18.447v-36.895l18.921 10.925-.123 58.534zm0-25.481v-2.123l-1.841 1.063V83.635l1.838 1.062v-2.123l28.889 16.679-1.839 1.062 1.839 1.062zm99.349-59.482l-19.979 11.535-26.455-45.823h-.317c-.02-.013-.036-.031-.056-.043a.987.987 0 00-.989 0l-.072.042H173.75V.982h66.281zm23.4 40.755h-26.512l-15.849-27.451 19.975-11.533zm25.018-68.71l-24.571 14.186L272.57 2.585zm2.05 1.174l21.889 12.536v29.661h-31.659l-1.179 2.042h32.838v23.3h-46.68l-22.953-39.971 20.377-11.764 16.419 28.438 1.178-2.042-15.829-27.417zm22.438-13.589l-.549.951-.409.708-1.429 2.476 1.838-1.062V42.05l-19.911-11.4 18.073-10.434v2.123l2.042-3.537zm1.492 166.808v-2.122l28.889 16.679-1.839 1.062 1.839 1.061-28.889 16.679v-2.122l-2.042 3.536-.409.708-1.429 2.476 1.838-1.062v20.779l-19.905-11.4 18.072-10.434v2.123l2.042-3.537.409-.708 1.43-2.476-1.839 1.061v-33.358zm0 194.97v-22.57l51.056-29.655-.125 59.715-18.979 10.958v-36.894zm29.909-14.91v33.357l-28.888-16.679zm0 39.017v33.357l-28.888-16.678zm4.9-2.83l-1.838-1.062 17.953-10.366-.047 22.827-17.906-10.338 1.838-1.061zm-34.811-46.13v-27.859h47.963zm0-29.9v-23.3h66.281l33.068 57.586-19.979 11.535-26.457-45.824h-.317c-.02-.014-.035-.032-.057-.044a.987.987 0 00-.989 0l-.072.042zm169.87 154.007l1.4 2.42-1.4-2.42v2.122L498.907 470.7l20.3-11.789v21.384zm3.88 1.061v-22.57l51.056-29.655-.126 59.715-18.979 10.958v-36.895zm29.91-14.91v33.358l-28.888-16.679zm0 39.017v33.358l-28.882-16.676zm4.9-2.83l-1.838-1.062 17.953-10.365-.048 22.826-17.906-10.338zm-34.811-46.13v-27.858h47.962zm0-29.9v-23.3h66.281l33.068 57.586-19.979 11.535-26.457-45.824h-.317c-.02-.013-.035-.031-.056-.043a.987.987 0 00-.989 0l-.073.042zm138.87 51.747h32.837v23.3h-46.68l-22.953-39.971 20.376-11.764 16.419 28.438 1.178-2.042-15.829-27.417 25.6-14.78 21.888 12.536v29.661h-31.659zm29.978-57.583l-19.1 11.028-51.477-29.481 51.1-29.683 19.473 11.242-31.952 18.448zm-27.868-18.447l28.888-16.679v33.358zM599.863 72.896l15.829 27.417-15.829 27.417-25.772-14.88.052-25.106zm-25.706 12.487l.119-56.822 24.575 42.565zm-1.851-58.573l-.126 59.715-18.978 10.958V60.588L521.25 79.035v-22.57zM521.25 54.183V26.324h47.963zm0 89.352V121.59l31.952 18.447v-36.895l18.921 10.925-.123 58.534zm49.748 30.767H521.25V145.81zm-14.937-73.989l-1.838-1.062 17.953-10.365-.048 22.826-17.906-10.338 1.838-1.062zm-33.79 19.509l28.888-16.679v33.358zm28.888-55.7v33.361l-28.888-16.679zm21.859 112.219l13.378 23.3H521.25v-23.3zm-51.769 103.321v-22.57l51.056-29.655-.126 59.715L553.2 298.11v-36.895zm29.91-14.91v33.358l-28.888-16.679zm0 39.017v33.358l-28.888-16.679zm4.9-2.83l-1.838-1.062 17.953-10.365-.048 22.826L554.22 302zm-34.811-46.13V226.95h47.963zm0-29.9v-23.3h66.281l33.068 57.586-19.979 11.535-26.457-45.824h-.317c-.02-.013-.035-.031-.056-.043a.987.987 0 00-.989 0l-.072.042zm66.859 174.374l-13.373-23.289 25.889-44.841 19.978 11.535zm.57.991zm1.133 1.974h26.987l25.887 44.837-20.377 11.759zm54.195 98.341h-26.512l-15.849-27.451 19.975-11.533zm-23.927-96.742l48.945 28.032-24.571 14.186zm-20.2-130.318l15.829 27.417-15.829 27.417-25.772-14.88.052-25.106zm-25.715 12.489l.119-56.822 24.575 42.565zm43.332 15.915h26.508l-22.382 38.984-19.981-11.534zm4.818 41.741l20.373 11.763-25.887 44.837h-26.992zm-48.333 29.545l.121-57.38 24.756 14.293zm42.819-173.575h-26.992l32.5-56.6 20.373 11.763zm27.655-43.816l24.206 13.976-48.559 28.2zm-22.839-15.545l-19.975-11.532 15.849-27.451h26.508zm-33.508 58.368l-13.374-23.289 25.889-44.841 19.978 11.535zm.569.991zm-14.7-27.055l.12-57.381 24.756 14.293zm27.665-100.711l19.975-11.533 22.386 38.984H617.49zm44.066 30.417l13.56 23.614.151-.087-15.714 27.217-20.377-11.765zm1.708-.991h45.546v23.3h-32.168zm45.546 25.338v29.043l-22.267 12.933-25.221-14.561 15.829-27.417-.825-1.429.825 1.429zm-2.859 55.541l-30.242 17.46h-38.653l49.416-28.7zm-21.08 49.065l-24.57 14.186-24.374-42.217zm-26.339 15.207l-20.376 11.762-32.5-56.6h26.987zm1.321 53.5h-26.512l-15.849-27.451 19.975-11.533zm1.7 2.965l13.56 23.614.151-.087-15.714 27.217-20.377-11.764zm-1.255 53.533l24.205 13.975-48.558 28.2zm.687 146.1zm47.822 0v23.3H660.79l-13.378-23.3zm-33.542 24.519l-15.714 27.217-20.395-11.765 22.394-38.971 13.56 23.614zm-37.815 14.457l-19.96-11.524 15.849-27.452h26.508zm-21.728-12.545l-25.772-14.88.052-25.106 25.72-14.85 15.829 27.417zm-25.715-42.346l.119-56.822 24.575 42.565zm24.694 44.114l-24.876 43.087.12-57.381zm-77.6-130.487v-23.3h51.769l13.378 23.3zm0-25.338v-28.492L571 374.925zm0-30.767v-21.945l31.952 18.447v-36.887l18.921 10.925-.123 58.534zm0-25.482v-2.123l-2.042 3.537-.409.708-1.431 2.485 1.838-1.062v20.776l-19.91-11.4 18.072-10.434v2.12l2.042-3.537.409-.708 1.43-2.476-1.839 1.062v-33.358l1.839 1.062-1.43-2.476-.409-.708-2.042-3.536v2.123l-18.463-10.66 20.3-11.788v21.384l-1.838-1.062 1.429 2.476.409.708 2.042 3.537v-2.123l28.889 16.679-1.839 1.062 1.839 1.062zm-34.88-142.339h32.835v23.3h-46.68l-22.953-39.971 20.376-11.764 16.419 28.439 1.179-2.042-15.828-27.416 25.6-14.78 21.889 12.537v29.661H487.55zm29.978-57.583l-19.1 11.028-51.476-29.482 51.105-29.683 19.472 11.242-31.952 18.447zm-27.868-18.448l28.889-16.679v33.358zm-41.633 58.577l-19.979 11.535-26.457-45.824h-.317c-.02-.014-.035-.031-.057-.044a.987.987 0 00-.989 0l-.072.042h-51.479v-23.3h66.281zm-31.926-59.56zM347.5 179.347v-22.564l51.056-29.655-.125 59.715-18.979 10.958v-36.895zm29.909-14.91v33.358l-28.888-16.679zm0 39.017v33.358l-28.888-16.678zm4.9-2.829l-1.838-1.062 17.953-10.366-.047 22.826-17.906-10.338zm-34.811-46.13v-27.859h47.963zm78.622 219.342l15.83 27.417-15.83 27.417-25.772-14.88.052-25.106zm-25.713 12.492l.119-56.822 24.574 42.565zm85.963-9.355h32.837v23.3h-46.68l-22.953-39.971 20.376-11.764 16.419 28.439 1.179-2.042-15.829-27.417 25.6-14.78 21.889 12.537v29.661h-31.659zm29.978-57.583l-19.1 11.028-51.476-29.481 51.105-29.684 19.472 11.243-31.952 18.446zm-27.868-18.448l28.889-16.679v33.358zm-16.527-98.336l13.56 23.614.151-.086-15.714 27.217-20.38-11.767zm-.569-.991zm-45.263-28.4l15.83 27.417-15.83 27.417-25.772-14.88.052-25.106zM400.407 185.7l.119-56.822 24.574 42.565zm43.332 15.916h26.507l-22.385 38.982-19.972-11.531zM427.89 172.19l19.975-11.532 22.386 38.984h-26.512zm42.808 83.95l24.209 13.976-48.559 28.2zm24.571 75.421l-24.571 14.185-24.374-42.216zm-23.884 70.684zm.569.991l13.56 23.614.151-.087-15.714 27.22-20.377-11.765zm47.254-.991v23.3h-32.169l-13.378-23.3zm0 25.338v29.045l-22.268 12.934-25.221-14.561 15.829-27.417-.825-1.429.825 1.429zm-24.301 43.161l-48.558 28.2 24.352-42.18zm-51.864 29.839h-26.982l32.5-56.6 20.373 11.762zm4.821-59.358l-19.974-11.532 15.849-27.451h26.507zm-19.974-68.408l19.975-11.534 22.386 38.984h-26.512zm-11.834-70.89h26.987l25.887 44.837-20.372 11.762zm0-1.974l32.5-56.6 20.376 11.764-25.887 44.837zm-1.7-1l-13.369-23.28 25.889-44.842 19.975 11.533zm-14.125-26.055l.12-57.38 24.756 14.293zm15.832-171.6h26.987l25.887 44.837-20.372 11.762zm30.268 1.6l48.944 28.031-24.571 14.185zm-30.266-3.573l32.26-56.737 20.612 11.9-25.887 44.837zm54.64-43.816l24.202 13.974-48.559 28.2zm48.51 146.1v23.3h-32.169l-13.378-23.3zm0 25.338v29.045l-22.268 12.934-25.221-14.561 15.829-27.417-.825-1.428.825 1.429zm-1.838 291.3l-28.889-16.679 28.889-16.679zm-1.021 1.769l-19.1 11.028-51.476-29.482 51.105-29.684 19.472 11.243-31.96 18.452zm-21.08 12.17l-24.571 14.185-24.374-42.217zm-26.339 15.206l-20.372 11.762-32.5-56.6h26.987zm-54.577-47.8l-13.373-23.288 25.889-44.842 19.978 11.535zm-14.129-26.063l.12-57.381 24.756 14.293zm-52.725-173.575v-23.3h51.768l13.378 23.3zm0-25.339v-28.492l49.748 28.492zm0-30.767v-21.945l31.952 18.448v-36.895l18.921 10.924-.123 58.534zm0-198.354l49.748 28.492h-49.748zm29.909-9.31l-28.888-16.678 28.888-16.679zm20.964-22.433l-.129 58.532-50.75-29.066V21.272l31.952 18.448V2.825zm.9 62.276l13.378 23.3h-65.146v-23.3zm25.833-46.845l-24.876 43.087.12-57.381zm1.769 1.02l19.74 11.4-32.257 56.731-13.372-23.286zM469.707.983l-22.084 38.841-19.728-11.39L443.744.983zm1.136 0zm.571.994l13.881 24.174-15.34 26.568-20.623-11.907zm47.8 22.3h-32.715L473.121.977h46.086zm0 31.087l-22.268 12.934-25.221-14.561 15.829-27.417-.608-1.052.608 1.052h31.653zm0 25.79l2.042 3.537v-2.123l28.889 16.679-1.839 1.062 1.839 1.062-28.889 16.679v-2.123l-2.042 3.537-.409.708-1.429 2.476 1.838-1.062v20.776l-19.911-11.4 18.073-10.434v2.123l2.042-3.537.409-.708 1.43-2.476-1.839 1.062V83.634l1.839 1.062-1.43-2.476-.409-.708-2.042-3.536v2.123l-18.469-10.657 20.3-11.789v21.384l-1.838-1.061 1.429 2.476.409.708zM587.536.981l33.068 57.586-19.979 11.535-26.462-45.819h-.317c-.02-.013-.035-.031-.056-.043a.987.987 0 00-.989 0l-.072.042H521.25V.982zm29.263 0l25.887 44.837-20.379 11.765-32.5-56.6zm52.225 29.63l-24.57 14.186L620.08 2.58zm2.05 1.174l21.888 12.536v29.661h-31.659l-1.178 2.042h32.837v23.3h-46.68l-22.953-39.971 20.376-11.764 16.419 28.438 1.178-2.042-15.829-27.417zm22.438-13.589l-.549.951-.409.708-1.429 2.476 1.838-1.062v20.776l-19.911-11.4 18.073-10.434v2.123l2.042-3.537zm-2.388 160.087v2.123l-18.458-10.657 20.3-11.789v21.384l-1.838-1.062 1.429 2.476.409.708.354.613-.151-.261zm0 39.017l-28.888-16.678 28.888-16.679zm-20.122 12.8l-49.742-28.489h38.6l30.242 17.46zm21.96 69.852h-46.68l-22.957-39.969 20.376-11.764 16.419 28.438 1.178-2.042-15.829-27.417 25.6-14.78 21.888 12.536v29.661h-31.659l-1.178 2.042h32.837zm0 25.271h-32.168l-13.378-23.3h45.546zm0 31.086l-22.267 12.934-25.225-14.56 15.829-27.417-.825-1.429.825 1.429h31.659zm.2 26.143l-2.042-3.537v2.123l-18.458-10.655 20.3-11.788v21.388l-1.838-1.062 1.429 2.476.409.708.4.691zm-.2 37.956l-.409.708-1.429 2.476 1.838-1.061v20.776l-19.91-11.4 18.072-10.434v2.123l2.042-3.537.346-.6zm-47.488 134.9l15.829-27.417-.825-1.429.825 1.429h31.659v29.044l-22.267 12.934zm-25.373 43.948l24.353-42.18 24.206 13.976zm-30.332 1.636l32.529-56.608 20.387 11.771-25.887 44.837zm-1.7-1l-13.332-23.281 25.891-44.843 19.964 11.526zm-66.811-22.3h51.766l13.341 23.3h-65.107zm0-30.534l49.748 28.492h-49.748zm0-24.22l31.952 18.447V504.39l18.921 10.925-.123 58.534-50.751-29.066zm0-5.66l-2.042 3.537-.409.708-1.429 2.476 1.838-1.062v20.776l-19.91-11.4 18.072-10.434v2.123l2.042-3.537.409-.708 1.43-2.476-1.839 1.062v-33.358l1.839 1.062-1.43-2.476-.409-.708-.582-1.007.378.655 2.042 3.537v-2.123l28.889 16.679-1.839 1.062 1.839 1.062-28.889 16.679zm-48.722 83.71l-22.953-39.971 20.376-11.764 16.419 28.439 1.179-2.042-15.829-27.417 25.6-14.78 21.889 12.536v29.662h-31.659l-1.179 2.042h32.828v23.3zm-44.638-27.451l19.975-11.532 22.386 38.983h-26.512zm-27.483 13.51l.119-56.822 24.574 42.565zm-51.886-4.58l28.888-16.678v33.357zm-1.021-24.338l51.056-29.655-.125 59.715-18.979 10.958v-36.884l-31.952 18.448zm0-30.142h47.963l-47.963 27.859zm0-25.339h66.28l33.069 57.586-19.987 11.549-26.457-45.824h-.317a.682.682 0 00-.056-.043.985.985 0 00-.989 0l-.072.042H347.5zm0-25.271h51.768l13.378 23.3h-65.146zm0-30.533l49.748 28.492h-49.748zm0-24.22l31.952 18.448v-36.889l18.921 10.924-.123 58.534-50.75-29.066zm0-5.659l-1.839 1.062v-33.344l1.839 1.061v-2.123l28.889 16.679-1.839 1.062 1.839 1.061-28.889 16.679zm-2.042 3.536l-.409.708-1.429 2.476 1.838-1.061V443.3l-19.911-11.4 18.072-10.434v2.123l2.042-3.537.346-.6zm-47.489 134.9l15.829-27.417-.824-1.429.825 1.429h31.659v29.044l-22.268 12.934zm-25.373 43.948l24.352-42.18 24.207 13.976zm-30.392 1.637l32.562-56.603 20.406 11.782-25.887 44.837zm-1.139 0zm-.569-.99l-13.32-23.2 25.943-44.934 19.944 11.515zm-66.747-22.306h51.65l13.377 23.3h-65.039zm0-30.051l48.9 28.009h-48.9zm0-24.7l31.952 18.447v-36.895l19.255 11.117-.124 59.015-51.09-29.24zm-1.85-37.945l1.838 1.062v-2.123l28.889 16.679-1.839 1.062 1.839 1.062-28.889 16.679v-2.123l-1.805 3.127.376-.65 1.43-2.476-1.839 1.059zm1.838-199.568l-1.43-2.476-.409-.708-2.042-3.536v2.123l-18.457-10.658 20.3-11.788v21.383l-1.838-1.062 1.429 2.476.409.708 2.042 3.537v-2.123l28.889 16.679-1.839 1.062 1.839 1.062-28.888 16.678v-2.123l-1.843 1.062v-33.358zm-1.885 235.128l-.157.273-.409.708-1.429 2.476 1.838-1.062v21.259l-20.331-11.644 18.493-10.676v2.123zM125.023 600.9l-22.953-39.971 20.377-11.764 16.419 28.439 1.178-2.042-15.829-27.417 25.179-14.537 22.313 12.775v29.178h-31.659l-1.179 2.042h32.838v23.3zm-44.638-27.451l19.975-11.532 22.386 38.983H96.234zm-27.478 13.509l.119-56.822L77.6 572.701zm-23 12.1L1.021 582.383 29.907 565.7z"/><path class="a" d="M1390 0h695v601.887h-695z"/><path class="b" d="M1418.889 600.826l-1.839 1.062h7.76l-1.838-1.062 17.954-10.366-.019 11.423h1.974l.026-12.569 25.72-14.849 15.83 27.417h177.579l-.01-.007 51.1-29.683 19.472 11.242-31.951 18.449h4.084l28.889-16.679v16.679h2.042v-16.679l1.839 1.061-1.43-2.476-.409-.708-2.042-3.537v2.123l-18.458-10.657 20.3-11.789v21.384l-1.838-1.062 1.429 2.476.409.708 2.042 3.536v-2.122l28.889 16.679-1.839 1.062h7.76l-1.838-1.062 17.953-10.366-.022 11.429h1.974l.026-12.569 25.72-14.849 15.83 27.417h177.579l-.01-.007 51.105-29.683 19.472 11.242-31.956 18.449h4.084l28.888-16.679v16.679h2.042v-16.679l1.839 1.061-1.43-2.476-.409-.708-2.042-3.537v2.123l-18.458-10.657 20.3-11.789v21.384l-1.838-1.062 1.429 2.476.409.708 2.042 3.536V416.876l-1.839 1.062v-33.355l1.839 1.061V216.247l-2.042 3.536-.409.708-1.429 2.476 1.838-1.062v20.778l-19.91-11.4 18.072-10.434v2.123l2.042-3.537.409-.708 1.43-2.476-1.839 1.061v-33.358l1.839 1.061V15.621l-1.839 1.062V.004h-2.042v16.678L2052.235.004h-4.084l31.952 18.447-19.1 11.028L2009.536.004h-177.584l-15.83 27.417-25.772-14.88.026-12.537h-1.969l-.024 11.4-17.906-10.338 1.838-1.061h-7.76l1.839 1.061-28.889 16.679v-2.123l-1.839 1.062V.005h-2.042v16.678L1704.735.005h-4.084l31.952 18.447-19.1 11.028L1662.036.005h-3.307l26.456 45.824-20.378 11.754-32.5-56.6h26.417v-.987h-174.272l-15.83 27.417-25.772-14.88.027-12.537h-1.97l-.024 11.4-17.906-10.338 1.838-1.061h-7.76l1.839 1.061-28.889 16.679v3.537l31.952 18.448V2.827l18.921 10.924-.128 58.532L1390 43.217v2.275l49.748 28.492H1390v2.042h51.769l13.377 23.3H1390v1.974h66.281l33.068 57.585-19.979 11.535-26.457-45.824h-.316c-.02-.014-.035-.031-.057-.044a.988.988 0 00-.989 0l-.072.042H1390v2.042h47.963L1390 154.495v2.283l51.057-29.656-.125 59.715-18.979 10.958V160.9l-31.952 18.448v3.537l28.889 16.679-1.839 1.062 1.839 1.061-28.889 16.679v3.537l31.952 18.448v-36.895l18.921 10.924-.123 58.534-50.75-29.066v2.275l49.748 28.492h-49.748v2.042h51.769l13.378 23.3h-65.146v1.974h66.281l33.068 57.586-19.979 11.535-26.457-45.824h-.316c-.02-.014-.035-.032-.057-.044a.987.987 0 00-.989 0l-.072.042h-51.479v2.042h47.963l-47.963 27.859v2.283l51.057-29.655-.125 59.715-18.979 10.958v-36.895L1390 379.983v3.537l28.889 16.679-1.839 1.062 1.839 1.061L1390 419.001v3.537l31.952 18.448v-36.903l18.921 10.924-.123 58.534-50.75-29.066v2.274l49.748 28.492H1390v2.042h51.769l13.378 23.3h-65.146v1.974h66.281l33.068 57.586-19.98 11.54-26.457-45.824h-.317c-.02-.014-.035-.031-.056-.043a.985.985 0 00-.989 0l-.072.042H1390v2.042h47.963L1390 555.759v2.283l51.057-29.659-.125 59.715-18.979 10.958v-36.893l-31.952 18.448v3.537zm1.021-202.4l-28.888-16.679 28.885-16.676zm0 39.017l-28.888-16.678 28.885-16.682zm21.017-47.615l-.048 22.827-17.906-10.338 1.838-1.061-1.838-1.062zm-21.02-192.029l-28.888-16.679 28.888-16.679zm0 39.017l-28.888-16.678 28.888-16.679zm21.017-47.615l-.048 22.826-17.906-10.338 1.838-1.061-1.838-1.062zm-21.017-153.018l-28.888-16.678 28.888-16.675zm38.647 466.372h26.987l25.887 44.837-20.372 11.762zm101.313-23.325l1.4 2.42-1.4-2.42v2.122l-17.709-10.224 19.549-11.345V480.3zm-31-102.26h32.84v23.3h-46.68l-22.953-39.971 20.377-11.764 16.419 28.439 1.178-2.042-15.829-27.417 25.6-14.78 21.889 12.536v29.662h-31.659zm31-53.692l1.838-1.062v20.776l-19.911-11.4 18.072-10.434v2.125l1.838-3.185-.409.708zm-45.416-120.675l13.56 23.614.151-.086-15.714 27.217-20.38-11.767zm-24.092 37.991l-19.972-11.531 15.849-27.451h26.508zm22.837 15.543l24.206 13.975-48.559 28.2zm26.177 15.114l19.473 11.242-31.949 18.45 31.952 18.448-19.1 11.028-51.477-29.481zm-1.606 60.307l-24.571 14.186-24.374-42.217zm22.1-47.3v33.358l-28.889-16.679zm-45.416 118.972l13.56 23.614.151-.086-15.71 27.225-20.38-11.767zm-24.092 37.991l-19.972-11.53 15.849-27.451h26.508zm22.837 15.543l24.955 14.408-50.061 29.077zm48.51-54.525v23.3h-32.168l-13.379-23.3zm0 25.338v29.912l-21.519 12.5-25.969-14.994 15.829-27.417-.825-1.429.825 1.429zm-1.838 90.668l-28.889-16.679 28.889-16.679zm-1.021 1.769l-19.521 11.271-50.724-29.05 51.521-29.925 18.724 10.81-31.95 18.453zm-21.5 12.412l-24.15 13.943-23.955-41.486zm-78.8-31.847l32.5-56.6 20.376 11.764-25.88 44.84zm-15.072-24.28l25.89-44.842 19.975 11.533-32.5 56.589zm-.635-60.155l24.756 14.293-24.877 43.087zm24.756-44.078l-24.689 14.263.119-56.822zm16.851 29.186l-15.83 27.417-25.772-14.88.052-25.106 25.72-14.849zm5.918-39.969l22.386 38.984h-26.512l-15.849-27.451zm-31.809-59.357h26.987l25.887 44.837-20.372 11.762zm0-1.974l32.5-56.6 20.375 11.764-25.887 44.837zm-15.072-24.28l25.89-44.842 19.975 11.533-32.5 56.589zm-.635-60.155l24.756 14.293-24.877 43.087zm24.756-44.078l-24.698 14.261.119-56.822zm16.851 29.186l-15.83 27.417-25.772-14.88.052-25.106 25.72-14.849zm5.913-39.971l22.386 38.984h-26.512l-15.849-27.451zm-31.808-59.357h26.986l25.887 44.837-20.372 11.762zm100.291 17.46l-19.1 11.028-51.477-29.482 51.1-29.683 19.473 11.242-31.952 18.447zm-27.868-18.448l28.889-16.679v33.358zm-42.135-2.623l24.353-42.18 24.205 13.977zm48.923 33.241l-24.57 14.185-24.374-42.217zm-79.226-31.6l32.355-56.691 20.531 11.854-25.887 44.837zm9.058-70.142l-24.877 43.087.121-57.381zm1.769 1.02l19.82 11.443-32.344 56.672-13.364-23.273zM1512.4.986l-22.2 38.889-19.811-11.438L1486.238.986zm1.136 0zm.57.992l13.785 24.005-15.437 26.738-20.547-11.858zm47.6 22.3h-32.52l-13.378-23.3h45.9zm0 31.087l-22.268 12.934-25.221-14.561 15.829-27.417-.559-.968.56.968h31.66zm-1.838 22.606l1.429 2.476.409.708-1.838-3.184v2.123l-18.461-10.652 20.3-11.788v21.383zm1.838 64.391l-19.911-11.4 18.072-10.434v2.123l1.838-3.185-.409.708-1.429 2.476 1.838-1.062zm0 57.275h-46.68l-22.953-39.971 20.377-11.764 16.419 28.439 1.178-2.042-15.827-27.416 25.6-14.78 21.889 12.536v29.662h-31.659l-1.179 2.042h32.836zm0 25.271h-32.168l-13.378-23.3h45.547zm0 31.087l-22.268 12.934-25.221-14.561 15.829-27.417-.825-1.428.825 1.429h31.661zm2.042 224.3v-21.7l51.389-29.849-.123 58.848-19.314 11.151V461.85zm29.909-14.91v33.358l-28.888-16.679zm0 39.017v33.358l-28.886-16.677zm4.9-2.83l-1.839-1.062 18.288-10.559-.048 23.212-18.24-10.53zm-34.811-45.263v-28.726h49.461zm0-30.768v-23.3h66.281l33.068 57.586-19.979 11.535-26.457-45.824zm138.87 51.747h32.838v23.3h-46.68l-22.953-39.971 20.377-11.764 16.419 28.438 1.178-2.042-15.829-27.417 25.6-14.78 21.889 12.536v29.661h-31.659zm31-98.369l1.429 2.476.409.708.4.691-.2-.339-2.042-3.537v2.123l-18.45-10.658 20.3-11.788v21.388zm-31-102.26h32.838v23.3h-46.68l-22.949-39.976 20.377-11.764 16.419 28.438 1.178-2.042-15.829-27.417 25.6-14.78 21.889 12.536v29.661H1703.8zm31-98.369l1.429 2.476.409.708.354.613-.151-.261-2.042-3.537v2.123l-18.458-10.657 20.3-11.789v21.384zm-91.248-105.394l15.83 27.417-15.83 27.417-25.772-14.88.052-25.106zm-25.71 12.487l.119-56.822 24.574 42.565zm25.714 188.14l15.83 27.417-15.83 27.417-25.772-14.88.052-25.106zm-25.714 12.489l.119-56.822 24.574 42.565zm15.649 116.23h26.987l25.887 44.837-20.374 11.765zm54.195 98.341h-26.512l-15.849-27.451 19.975-11.533zm-23.927-96.742l48.945 28.032-24.571 14.186zm-30.273-3.573l32.5-56.6 20.376 11.764-25.887 44.837zm55.9-97.349l13.56 23.614.151-.087-15.714 27.217-20.38-11.766zm-24.092 37.99l-19.97-11.526 15.849-27.451h26.508zm22.836 15.543l24.207 13.975-48.559 28.2zm-56.349 42.817l-13.369-23.28 25.889-44.841 19.975 11.533zm-14.125-26.055l.12-57.38 24.756 14.293zm27.665-100.711l19.975-11.533 22.386 38.984h-26.512zm-11.83-70.887h26.987l25.887 44.837-20.374 11.762zm30.268 1.6l48.944 28.031-24.571 14.186zm-3.281-3.573h-26.987l32.5-56.6 20.373 11.763zm27.655-43.816l24.207 13.976-48.559 28.2zm-56.342 42.824l-13.374-23.289 25.889-44.841 19.978 11.535zm-14.132-26.068l.12-57.381 24.756 14.293zm43.514-71.286h26.508l-22.382 38.986-19.974-11.532zm28.215.991l13.56 23.614.151-.087-15.714 27.217-20.377-11.765zm1.707-.991h45.547v23.3h-32.169zm45.547 25.338v29.048l-22.268 12.933-25.221-14.561 15.829-27.417-.824-1.429.825 1.429zm-1.838 90.667l-28.889-16.678 28.889-16.679zm-1.021 1.769l-19.1 11.028-51.477-29.482 51.1-29.684 19.472 11.242-31.952 18.448zm2.86 82.854v23.3h-32.169l-13.383-23.295zm0 25.339v29.044l-22.268 12.934-25.221-14.559 15.829-27.417-.824-1.429.825 1.429zm-1.838 90.668l-28.889-16.678 28.889-16.679zm-1.021 1.769l-19.1 11.028-51.477-29.481 51.1-29.683 19.472 11.242-31.952 18.448zm-44.963 82.854zm47.823 0v23.3h-32.169l-13.384-23.296zm-33.543 24.519l-15.714 27.217-20.41-11.783 22.412-38.961 13.56 23.614zm-37.833 14.446l-19.942-11.513 15.849-27.452h26.507zm-21.71-12.534l-25.438-14.687.053-25.492 25.385-14.656 15.83 27.417zm-25.381-42.539l.117-56.053 24.242 41.989zm24.359 44.307l-24.545 42.511.118-56.607zm-77.6-130.487v-23.3h51.769l13.378 23.3zm34.811-99.328l-1.839-1.062 17.954-10.365-.049 22.827-17.906-10.338zm-34.811 73.989v-28.492l49.749 28.492zm0-30.767v-21.945l31.952 18.447v-36.89l18.921 10.925-.123 58.534zm1.021-23.713l28.888-16.679v33.358zm-1.021-40.786v-22.57l51.056-29.655-.125 59.715-18.979 10.958v-36.895zm29.909-14.91v33.358l-28.888-16.679zm-29.909-9.942v-27.859h47.963zm0-29.9v-23.3h66.281l33.068 57.586-19.979 11.535-26.457-45.824h-.317c-.02-.013-.036-.031-.056-.043a.987.987 0 00-.989 0l-.072.042zm0-25.271v-23.3h51.769l13.378 23.3zm51.056-172.829l-.125 59.715-18.981 10.958V60.588l-31.952 18.447v-22.57zm-51.058 27.373V26.324h47.963zm29.909 9.942v33.358l-28.888-16.679zm0 39.017V136.5l-28.888-16.679zm4.9-2.83l-1.839-1.062 17.957-10.367-.049 22.826-17.906-10.338 1.839-1.062zm-34.811 73.989v-28.492l49.748 28.492zm0-30.767v-21.945l31.952 18.447v-36.895l18.921 10.925-.123 58.534zm0-25.481v-2.123l-1.841 1.063V83.635l1.838 1.062v-2.123l28.889 16.679-1.839 1.062 1.839 1.062zm99.349-59.482l-19.979 11.535-26.455-45.823h-.317c-.02-.013-.036-.031-.056-.043a.987.987 0 00-.989 0l-.072.042h-51.479V.982h66.281zm23.4 40.755h-26.512l-15.849-27.451 19.975-11.533zm25.018-68.71l-24.571 14.186-24.374-42.217zm2.05 1.174l21.889 12.536v29.661h-31.659l-1.179 2.042h32.838v23.3h-46.68l-22.953-39.971 20.377-11.764 16.419 28.438 1.178-2.042-15.829-27.417zm22.438-13.589l-.549.951-.409.708-1.429 2.476 1.838-1.062V42.05l-19.911-11.4 18.073-10.434v2.123l2.042-3.537zm1.492 166.808v-2.122l28.889 16.679-1.839 1.062 1.839 1.061-28.889 16.679v-2.122l-2.042 3.536-.409.708-1.429 2.476 1.838-1.062v20.779l-19.905-11.4 18.072-10.434v2.123l2.042-3.537.409-.708 1.43-2.476-1.839 1.061v-33.358zm0 194.97v-22.57l51.056-29.655-.125 59.715-18.979 10.958v-36.894zm29.909-14.91v33.357l-28.888-16.679zm0 39.017v33.357l-28.888-16.678zm4.9-2.83l-1.838-1.062 17.953-10.366-.047 22.827-17.906-10.338 1.838-1.061zm-34.811-46.13v-27.859h47.963zm0-29.9v-23.3h66.281l33.068 57.586-19.979 11.535-26.457-45.824h-.317c-.02-.014-.035-.032-.057-.044a.987.987 0 00-.989 0l-.072.042zm169.87 154.007l1.4 2.42-1.4-2.42v2.122l-18.456-10.655 20.3-11.789v21.384zm3.88 1.061v-22.57l51.056-29.655-.126 59.715-18.979 10.958v-36.895zm29.91-14.91v33.358l-28.888-16.679zm0 39.017v33.358l-28.882-16.676zm4.9-2.83l-1.838-1.062 17.953-10.365-.048 22.826-17.906-10.338zm-34.811-46.13v-27.858h47.962zm0-29.9v-23.3h66.281l33.068 57.586-19.979 11.535-26.457-45.824h-.317c-.02-.013-.035-.031-.056-.043a.987.987 0 00-.989 0l-.073.042zm138.87 51.747h32.837v23.3h-46.68l-22.953-39.971 20.376-11.764 16.419 28.438 1.178-2.042-15.829-27.417 25.6-14.78 21.888 12.536v29.661h-31.659zm29.978-57.583l-19.1 11.028-51.477-29.481 51.1-29.683 19.473 11.242-31.952 18.448zm-27.868-18.447l28.888-16.679v33.358zm-62.359-328.362l15.829 27.417-15.829 27.417-25.772-14.88.052-25.106zm-25.706 12.487l.119-56.822 24.575 42.565zm-1.851-58.573l-.126 59.715-18.978 10.958V60.588l-31.952 18.447v-22.57zm-51.056 27.373V26.324h47.963zm0 89.352V121.59l31.952 18.447v-36.895l18.921 10.925-.123 58.534zm49.748 30.767h-49.748V145.81zm-14.937-73.989l-1.838-1.062 17.953-10.365-.048 22.826-17.906-10.338 1.838-1.062zm-33.79 19.509l28.888-16.679v33.358zm28.888-55.7v33.361l-28.888-16.679zm21.859 112.219l13.378 23.3h-65.146v-23.3zm-51.769 103.321v-22.57l51.056-29.655-.126 59.715-18.979 10.958v-36.895zm29.91-14.91v33.358l-28.888-16.679zm0 39.017v33.358l-28.888-16.679zm4.9-2.83l-1.838-1.062 17.953-10.365-.048 22.826L1944.22 302zm-34.811-46.13V226.95h47.963zm0-29.9v-23.3h66.281l33.068 57.586-19.979 11.535-26.457-45.824h-.317c-.02-.013-.035-.031-.056-.043a.987.987 0 00-.989 0l-.072.042zm66.859 174.374l-13.373-23.289 25.889-44.841 19.978 11.535zm.57.991zm1.133 1.974h26.987l25.887 44.837-20.377 11.759zm54.195 98.341h-26.512l-15.849-27.451 19.975-11.533zm-23.927-96.742l48.945 28.032-24.571 14.186zm-20.2-130.318l15.829 27.417-15.829 27.417-25.772-14.88.052-25.106zm-25.715 12.489l.119-56.822 24.575 42.565zm43.332 15.915h26.508l-22.382 38.984-19.981-11.534zm4.818 41.741l20.373 11.763-25.887 44.837h-26.992zm-48.333 29.545l.121-57.38 24.756 14.293zm42.819-173.575h-26.992l32.5-56.6 20.373 11.763zm27.655-43.816l24.206 13.976-48.559 28.2zm-22.839-15.545l-19.975-11.532 15.849-27.451h26.508zm-33.508 58.368l-13.374-23.289 25.889-44.841 19.978 11.535zm.569.991zm-14.7-27.055l.12-57.381 24.756 14.293zm27.665-100.711l19.975-11.533 22.386 38.984h-26.512zm44.066 30.417l13.56 23.614.151-.087-15.714 27.217-20.377-11.765zm1.708-.991h45.546v23.3h-32.168zm45.546 25.338v29.043l-22.267 12.933-25.221-14.561 15.829-27.417-.825-1.429.825 1.429zm-2.859 55.541l-30.242 17.46h-38.653l49.416-28.7zm-21.08 49.065l-24.57 14.186-24.374-42.217zm-26.339 15.207l-20.376 11.762-32.5-56.6h26.987zm1.321 53.5h-26.512l-15.849-27.451 19.975-11.533zm1.7 2.965l13.56 23.614.151-.087-15.714 27.217-20.377-11.764zm-1.255 53.533l24.205 13.975-48.558 28.2zm.687 146.1zm47.822 0v23.3h-32.168l-13.378-23.3zm-33.542 24.519l-15.714 27.217-20.395-11.765 22.394-38.971 13.56 23.614zm-37.815 14.457l-19.96-11.524 15.849-27.452h26.508zm-21.728-12.545l-25.772-14.88.052-25.106 25.72-14.85 15.829 27.417zm-25.715-42.346l.119-56.822 24.575 42.565zm24.694 44.114l-24.876 43.087.12-57.381zm-77.6-130.487v-23.3h51.769l13.378 23.3zm0-25.338v-28.492L1961 374.925zm0-30.767v-21.945l31.952 18.447v-36.887l18.921 10.925-.123 58.534zm0-25.482v-2.123l-2.042 3.537-.409.708-1.431 2.485 1.838-1.062v20.776l-19.91-11.4 18.072-10.434v2.12l2.042-3.537.409-.708 1.43-2.476-1.839 1.062v-33.358l1.839 1.062-1.43-2.476-.409-.708-2.042-3.536v2.123l-18.463-10.66 20.3-11.788v21.384l-1.838-1.062 1.429 2.476.409.708 2.042 3.537v-2.123l28.889 16.679-1.839 1.062 1.839 1.062zm-34.88-142.339h32.835v23.3h-46.68l-22.953-39.971 20.376-11.764 16.419 28.439 1.179-2.042-15.828-27.416 25.6-14.78 21.889 12.537v29.661h-31.659zm29.978-57.583l-19.1 11.028-51.476-29.482 51.105-29.683 19.472 11.242-31.952 18.447zm-27.868-18.448l28.889-16.679v33.358zm-41.633 58.577l-19.979 11.535-26.457-45.824h-.317c-.02-.014-.035-.031-.057-.044a.987.987 0 00-.989 0l-.072.042h-51.479v-23.3h66.281zm-31.926-59.56zm-67.423 80.024v-22.564l51.056-29.655-.125 59.715-18.979 10.958v-36.895zm29.909-14.91v33.358l-28.888-16.679zm0 39.017v33.358l-28.888-16.678zm4.9-2.829l-1.838-1.062 17.953-10.366-.047 22.826-17.906-10.338zm-34.811-46.13v-27.859h47.963zm78.622 219.342l15.83 27.417-15.83 27.417-25.772-14.88.052-25.106zm-25.713 12.492l.119-56.822 24.574 42.565zm85.963-9.355h32.837v23.3h-46.68l-22.953-39.971 20.376-11.764 16.419 28.439 1.179-2.042-15.829-27.417 25.6-14.78 21.889 12.537v29.661h-31.659zm29.978-57.583l-19.1 11.028-51.476-29.481 51.105-29.684 19.472 11.243-31.952 18.446zm-27.868-18.448l28.889-16.679v33.358zm-16.527-98.336l13.56 23.614.151-.086-15.714 27.217-20.38-11.767zm-.569-.991zm-45.263-28.4l15.83 27.417-15.83 27.417-25.772-14.88.052-25.106zm-25.714 12.484l.119-56.822 24.574 42.565zm43.332 15.916h26.507l-22.385 38.982-19.972-11.531zm-15.849-29.426l19.975-11.532 22.386 38.984h-26.512zm42.808 83.95l24.209 13.976-48.559 28.2zm24.571 75.421l-24.571 14.185-24.374-42.216zm-23.884 70.684zm.569.991l13.56 23.614.151-.087-15.714 27.22-20.377-11.765zm47.254-.991v23.3h-32.169l-13.378-23.3zm0 25.338v29.045l-22.268 12.934-25.221-14.561 15.829-27.417-.825-1.429.825 1.429zm-24.301 43.161l-48.558 28.2 24.352-42.18zm-51.864 29.839h-26.982l32.5-56.6 20.373 11.762zm4.821-59.358l-19.974-11.532 15.849-27.451h26.507zm-19.974-68.408l19.975-11.534 22.386 38.984h-26.512zm-11.834-70.89h26.987l25.887 44.837-20.372 11.762zm0-1.974l32.5-56.6 20.376 11.764-25.887 44.837zm-1.7-1l-13.369-23.28 25.889-44.842 19.975 11.533zm-14.125-26.055l.12-57.38 24.756 14.293zm15.832-171.6h26.987l25.887 44.837-20.372 11.762zm30.268 1.6l48.944 28.031-24.571 14.185zm-30.266-3.573l32.26-56.737 20.612 11.9-25.887 44.837zm54.64-43.816l24.202 13.974-48.559 28.2zm48.51 146.1v23.3h-32.169l-13.378-23.3zm0 25.338v29.045l-22.268 12.934-25.221-14.561 15.829-27.417-.825-1.428.825 1.429zm-1.838 291.3l-28.889-16.679 28.889-16.679zm-1.021 1.769l-19.1 11.028-51.476-29.482 51.105-29.684 19.472 11.243-31.96 18.452zm-21.08 12.17l-24.571 14.185-24.374-42.217zm-26.339 15.206l-20.372 11.762-32.5-56.6h26.987zm-54.577-47.8l-13.373-23.288 25.889-44.842 19.978 11.535zm-14.129-26.063l.12-57.381 24.756 14.293zm-52.725-173.575v-23.3h51.768l13.378 23.3zm0-25.339v-28.492l49.748 28.492zm0-30.767v-21.945l31.952 18.448v-36.895l18.921 10.924-.123 58.534zm0-198.354l49.748 28.492h-49.748zm29.909-9.31l-28.888-16.678 28.888-16.679zm20.964-22.433l-.129 58.532-50.75-29.066V21.272l31.952 18.448V2.825zm.9 62.276l13.378 23.3h-65.146v-23.3zm25.833-46.845l-24.876 43.087.12-57.381zm1.769 1.02l19.74 11.4-32.257 56.731-13.372-23.286zM1859.707.983l-22.084 38.841-19.728-11.39L1833.744.983zm1.136 0zm.571.994l13.881 24.174-15.34 26.568-20.623-11.907zm47.8 22.3h-32.715l-13.378-23.3h46.086zm0 31.087l-22.268 12.934-25.221-14.561 15.829-27.417-.608-1.052.608 1.052h31.653zm0 25.79l2.042 3.537v-2.123l28.889 16.679-1.839 1.062 1.839 1.062-28.889 16.679v-2.123l-2.042 3.537-.409.708-1.429 2.476 1.838-1.062v20.776l-19.911-11.4 18.073-10.434v2.123l2.042-3.537.409-.708 1.43-2.476-1.839 1.062V83.634l1.839 1.062-1.43-2.476-.409-.708-2.042-3.536v2.123l-18.469-10.657 20.3-11.789v21.384l-1.838-1.061 1.429 2.476.409.708zM1977.536.981l33.068 57.586-19.979 11.535-26.462-45.819h-.317c-.02-.013-.035-.031-.056-.043a.987.987 0 00-.989 0l-.072.042h-51.479V.982zm29.263 0l25.887 44.837-20.379 11.765-32.5-56.6zm52.225 29.63l-24.57 14.186L2010.08 2.58zm2.05 1.174l21.888 12.536v29.661h-31.659l-1.178 2.042h32.837v23.3h-46.68l-22.953-39.971 20.376-11.764 16.419 28.438 1.178-2.042-15.829-27.417zm22.438-13.589l-.549.951-.409.708-1.429 2.476 1.838-1.062v20.776l-19.911-11.4 18.073-10.434v2.123l2.042-3.537zm-2.388 160.087v2.123l-18.458-10.657 20.3-11.789v21.384l-1.838-1.062 1.429 2.476.409.708.354.613-.151-.261zm0 39.017l-28.888-16.678 28.888-16.679zm-20.122 12.8l-49.742-28.489h38.6l30.242 17.46zm21.96 69.852h-46.68l-22.957-39.969 20.376-11.764 16.419 28.438 1.178-2.042-15.829-27.417 25.6-14.78 21.888 12.536v29.661h-31.659l-1.178 2.042h32.837zm0 25.271h-32.168l-13.378-23.3h45.546zm0 31.086l-22.267 12.934-25.225-14.56 15.829-27.417-.825-1.429.825 1.429h31.659zm.2 26.143l-2.042-3.537v2.123l-18.458-10.655 20.3-11.788v21.388l-1.838-1.062 1.429 2.476.409.708.4.691zm-.2 37.956l-.409.708-1.429 2.476 1.838-1.061v20.776l-19.91-11.4 18.072-10.434v2.123l2.042-3.537.346-.6zm-47.488 134.9l15.829-27.417-.825-1.429.825 1.429h31.659v29.044l-22.267 12.934zm-25.373 43.948l24.353-42.18 24.206 13.976zm-30.332 1.636l32.529-56.608 20.387 11.771-25.887 44.837zm-1.7-1l-13.332-23.281 25.891-44.843 19.964 11.526zm-66.811-22.3h51.766l13.341 23.3h-65.107zm0-30.534l49.748 28.492h-49.748zm0-24.22l31.952 18.447V504.39l18.921 10.925-.123 58.534-50.751-29.066zm0-5.66l-2.042 3.537-.409.708-1.429 2.476 1.838-1.062v20.776l-19.91-11.4 18.072-10.434v2.123l2.042-3.537.409-.708 1.43-2.476-1.839 1.062v-33.358l1.839 1.062-1.43-2.476-.409-.708-.582-1.007.378.655 2.042 3.537v-2.123l28.889 16.679-1.839 1.062 1.839 1.062-28.889 16.679zm-48.722 83.71l-22.953-39.971 20.376-11.764 16.419 28.439 1.179-2.042-15.829-27.417 25.6-14.78 21.889 12.536v29.662h-31.659l-1.179 2.042h32.828v23.3zm-44.638-27.451l19.975-11.532 22.386 38.983h-26.512zm-27.483 13.51l.119-56.822 24.574 42.565zm-51.886-4.58l28.888-16.678v33.357zm-1.021-24.338l51.056-29.655-.125 59.715-18.979 10.958v-36.884l-31.952 18.448zm0-30.142h47.963l-47.963 27.859zm0-25.339h66.28l33.069 57.586-19.987 11.549-26.457-45.824h-.317a.682.682 0 00-.056-.043.985.985 0 00-.989 0l-.072.042H1737.5zm0-25.271h51.768l13.378 23.3h-65.146zm0-30.533l49.748 28.492h-49.748zm0-24.22l31.952 18.448v-36.889l18.921 10.924-.123 58.534-50.75-29.066zm0-5.659l-1.839 1.062v-33.344l1.839 1.061v-2.123l28.889 16.679-1.839 1.062 1.839 1.061-28.889 16.679zm-2.042 3.536l-.409.708-1.429 2.476 1.838-1.061V443.3l-19.911-11.4 18.072-10.434v2.123l2.042-3.537.346-.6zm-47.489 134.9l15.829-27.417-.824-1.429.825 1.429h31.659v29.044l-22.268 12.934zm-25.373 43.948l24.352-42.18 24.207 13.976zm-30.392 1.637l32.562-56.603 20.406 11.782-25.887 44.837zm-1.139 0zm-.569-.99l-13.32-23.2 25.943-44.934 19.944 11.515zm-66.747-22.306h51.65l13.377 23.3h-65.039zm0-30.051l48.9 28.009h-48.9zm0-24.7l31.952 18.447v-36.895l19.255 11.117-.124 59.015-51.09-29.24zm-1.85-37.945l1.838 1.062v-2.123l28.889 16.679-1.839 1.062 1.839 1.062-28.889 16.679v-2.123l-1.805 3.127.376-.65 1.43-2.476-1.839 1.059zm1.838-199.568l-1.43-2.476-.409-.708-2.042-3.536v2.123l-18.457-10.658 20.3-11.788v21.383l-1.838-1.062 1.429 2.476.409.708 2.042 3.537v-2.123l28.889 16.679-1.839 1.062 1.839 1.062-28.888 16.678v-2.123l-1.843 1.062v-33.358zm-1.885 235.128l-.157.273-.409.708-1.429 2.476 1.838-1.062v21.259l-20.331-11.644 18.493-10.676v2.123zm-46.837 80.446l-22.953-39.971 20.377-11.764 16.419 28.439 1.178-2.042-15.829-27.417 25.179-14.537 22.313 12.775v29.178h-31.659l-1.179 2.042h32.838v23.3zm-44.638-27.451l19.975-11.532 22.386 38.983h-26.512zm-27.478 13.509l.119-56.822 24.574 42.565zm-23 12.1l-28.886-16.675 28.886-16.683z"/><path class="a" d="M695 0h695v601.887H695z"/><path class="b" d="M723.889 600.826l-1.839 1.062h7.76l-1.838-1.062 17.954-10.366-.019 11.423h1.974l.026-12.569 25.72-14.849 15.83 27.417h177.579l-.01-.007 51.1-29.683 19.472 11.242-31.951 18.449h4.084l28.889-16.679v16.679h2.042v-16.679l1.839 1.061-1.43-2.476-.409-.708-2.042-3.537v2.123l-18.458-10.657 20.3-11.789v21.384l-1.838-1.062 1.429 2.476.409.708 2.042 3.536v-2.122l28.889 16.679-1.839 1.062h7.76l-1.838-1.062 17.953-10.366-.022 11.429h1.974l.026-12.569 25.72-14.849 15.83 27.417h177.579l-.01-.007 51.105-29.683 19.472 11.242-31.956 18.449h4.084l28.888-16.679v16.679h2.042v-16.679l1.839 1.061-1.43-2.476-.409-.708-2.042-3.537v2.123l-18.458-10.657 20.3-11.789v21.384l-1.838-1.062 1.429 2.476.409.708 2.042 3.536V416.876l-1.839 1.062v-33.355l1.839 1.061V216.247l-2.042 3.536-.409.708-1.429 2.476 1.838-1.062v20.778l-19.91-11.4 18.072-10.434v2.123l2.042-3.537.409-.708 1.43-2.476-1.839 1.061v-33.358l1.839 1.061V15.621l-1.839 1.062V.004h-2.042v16.678L1357.235.004h-4.084l31.952 18.447-19.1 11.028L1314.536.004h-177.584l-15.83 27.417-25.772-14.88.026-12.537h-1.969l-.024 11.4-17.906-10.338 1.838-1.061h-7.76l1.839 1.061-28.889 16.679v-2.123l-1.839 1.062V.005h-2.042v16.678L1009.735.005h-4.084l31.952 18.447-19.1 11.028L967.036.005h-3.307l26.456 45.824-20.378 11.754-32.5-56.6h26.417v-.987H789.452l-15.83 27.417-25.772-14.88.027-12.537h-1.97l-.024 11.4-17.906-10.338 1.838-1.061h-7.76l1.839 1.061-28.889 16.679v3.537l31.952 18.448V2.827l18.921 10.924-.128 58.532L695 43.217v2.275l49.748 28.492H695v2.042h51.769l13.377 23.3H695v1.974h66.281l33.068 57.585-19.979 11.535-26.457-45.824h-.316c-.02-.014-.035-.031-.057-.044a.988.988 0 00-.989 0l-.072.042H695v2.042h47.963L695 154.495v2.283l51.057-29.656-.125 59.715-18.979 10.958V160.9l-31.952 18.448v3.537l28.889 16.679-1.839 1.062 1.839 1.061-28.889 16.679v3.537l31.952 18.448v-36.895l18.921 10.924-.123 58.534-50.75-29.066v2.275l49.748 28.492h-49.748v2.042h51.769l13.378 23.3h-65.146v1.974h66.281l33.068 57.586-19.979 11.535-26.457-45.824h-.316c-.02-.014-.035-.032-.057-.044a.987.987 0 00-.989 0l-.072.042h-51.479v2.042h47.963l-47.963 27.859v2.283l51.057-29.655-.125 59.715-18.979 10.958v-36.895L695 379.983v3.537l28.889 16.679-1.839 1.062 1.839 1.061L695 419.001v3.537l31.952 18.448v-36.903l18.921 10.924-.123 58.534L695 444.475v2.274l49.748 28.492H695v2.042h51.769l13.378 23.3h-65.146v1.974h66.281l33.068 57.586-19.98 11.54-26.457-45.824h-.317c-.02-.014-.035-.031-.056-.043a.985.985 0 00-.989 0l-.072.042H695v2.042h47.963L695 555.759v2.283l51.057-29.659-.125 59.715-18.979 10.958v-36.893l-31.952 18.448v3.537zm1.021-202.4l-28.888-16.679 28.885-16.676zm0 39.017l-28.888-16.678 28.885-16.682zm21.017-47.615l-.048 22.827-17.906-10.338 1.838-1.061-1.838-1.062zm-21.02-192.029l-28.888-16.679 28.888-16.679zm0 39.017l-28.888-16.678 28.888-16.679zm21.017-47.615l-.048 22.826-17.906-10.338 1.838-1.061-1.838-1.062zM724.907 36.183l-28.888-16.678L724.907 2.83zm38.647 466.372h26.987l25.887 44.837-20.372 11.762zm101.313-23.325l1.4 2.42-1.4-2.42v2.122l-17.709-10.224 19.549-11.345V480.3zm-31-102.26h32.84v23.3h-46.68l-22.953-39.971 20.377-11.764 16.419 28.439 1.178-2.042-15.829-27.417 25.6-14.78 21.889 12.536v29.662h-31.659zm31-53.692l1.838-1.062v20.776l-19.911-11.4 18.072-10.434v2.125l1.838-3.185-.409.708zm-45.416-120.675l13.56 23.614.151-.086-15.714 27.217-20.38-11.767zm-24.092 37.991l-19.972-11.531 15.849-27.451h26.508zm22.837 15.543l24.206 13.975-48.559 28.2zm26.177 15.114l19.473 11.242-31.949 18.45 31.952 18.448-19.1 11.028-51.477-29.481zm-1.606 60.307l-24.571 14.186-24.374-42.217zm22.1-47.3v33.358l-28.889-16.679zM819.451 403.23l13.56 23.614.151-.086-15.71 27.225-20.38-11.767zm-24.092 37.991l-19.972-11.53 15.849-27.451h26.508zm22.837 15.543l24.955 14.408-50.061 29.077zm48.51-54.525v23.3h-32.168l-13.379-23.3zm0 25.338v29.912l-21.519 12.5-25.969-14.994 15.829-27.417-.825-1.429.825 1.429zm-1.838 90.668l-28.889-16.679 28.889-16.679zm-1.021 1.769l-19.521 11.271-50.724-29.05 51.521-29.925 18.724 10.81-31.95 18.453zm-21.5 12.412l-24.15 13.943-23.955-41.486zm-78.8-31.847l32.5-56.6 20.376 11.764-25.88 44.84zm-15.072-24.28l25.89-44.842 19.975 11.533-32.5 56.589zm-.635-60.155l24.756 14.293-24.877 43.087zm24.756-44.078l-24.689 14.263.119-56.822zm16.851 29.186l-15.83 27.417-25.772-14.88.052-25.106 25.72-14.849zm5.918-39.969l22.386 38.984h-26.512l-15.849-27.451zm-31.809-59.357h26.987l25.887 44.837-20.372 11.762zm0-1.974l32.5-56.6 20.375 11.764-25.887 44.837zm-15.072-24.28l25.89-44.842 19.975 11.533-32.5 56.589zm-.635-60.155l24.756 14.293-24.877 43.087zm24.756-44.078L747.907 185.7l.119-56.822zm16.851 29.186l-15.83 27.417-25.772-14.88.052-25.106 25.72-14.849zm5.913-39.971l22.386 38.984h-26.512l-15.849-27.451zm-31.808-59.357h26.986l25.887 44.837-20.372 11.762zm100.291 17.46l-19.1 11.028-51.477-29.482 51.1-29.683 19.473 11.242-31.952 18.447zm-27.868-18.448l28.889-16.679v33.358zm-42.135-2.623l24.353-42.18 24.205 13.977zm48.923 33.241l-24.57 14.185-24.374-42.217zm-79.226-31.6l32.355-56.691 20.531 11.854-25.887 44.837zm9.058-70.142l-24.877 43.087.121-57.381zm1.769 1.02l19.82 11.443-32.344 56.672-13.364-23.273zM817.4.986l-22.2 38.889-19.811-11.438L791.238.986zm1.136 0zm.57.992l13.785 24.005-15.437 26.738-20.547-11.858zm47.6 22.3h-32.52L820.808.978h45.9zm0 31.087l-22.268 12.934-25.221-14.561 15.829-27.417-.559-.968.56.968h31.66zm-1.838 22.606l1.429 2.476.409.708-1.838-3.184v2.123l-18.461-10.652 20.3-11.788v21.383zm1.838 64.391l-19.911-11.4 18.072-10.434v2.123l1.838-3.185-.409.708-1.429 2.476 1.838-1.062zm0 57.275h-46.68l-22.953-39.971 20.377-11.764 16.419 28.439 1.178-2.042-15.827-27.416 25.6-14.78 21.889 12.536v29.662H835.05l-1.179 2.042h32.836zm0 25.271h-32.168l-13.378-23.3h45.547zm0 31.087l-22.268 12.934-25.221-14.561 15.829-27.417-.825-1.428.825 1.429h31.661zm2.042 224.3v-21.7l51.389-29.849-.123 58.848-19.314 11.151V461.85zm29.909-14.91v33.358l-28.888-16.679zm0 39.017v33.358l-28.886-16.677zm4.9-2.83l-1.839-1.062 18.288-10.559-.048 23.212-18.24-10.53zm-34.811-45.263v-28.726h49.461zm0-30.768v-23.3h66.281l33.068 57.586-19.979 11.535-26.457-45.824zm138.87 51.747h32.838v23.3h-46.68l-22.953-39.971 20.377-11.764 16.419 28.438 1.178-2.042-15.829-27.417 25.6-14.78 21.889 12.536v29.661h-31.659zm31-98.369l1.429 2.476.409.708.4.691-.2-.339-2.042-3.537v2.123l-18.45-10.658 20.3-11.788v21.388zm-31-102.26h32.838v23.3h-46.68l-22.949-39.976 20.377-11.764 16.419 28.438 1.178-2.042-15.829-27.417 25.6-14.78 21.889 12.536v29.661H1008.8zm31-98.369l1.429 2.476.409.708.354.613-.151-.261-2.042-3.537v2.123l-18.458-10.657 20.3-11.789v21.384zM947.368 72.896l15.83 27.417-15.83 27.417-25.772-14.88.052-25.106zm-25.71 12.487l.119-56.822 24.574 42.565zm25.714 188.14l15.83 27.417-15.83 27.417-25.772-14.88.052-25.106zm-25.714 12.489l.119-56.822 24.574 42.565zm15.649 116.23h26.987l25.887 44.837-20.374 11.765zm54.195 98.341H964.99l-15.849-27.451 19.975-11.533zm-23.927-96.742l48.945 28.032-24.571 14.186zm-30.273-3.573l32.5-56.6 20.376 11.764-25.887 44.837zm55.9-97.349l13.56 23.614.151-.087-15.714 27.217-20.38-11.766zm-24.092 37.99l-19.97-11.526 15.849-27.451h26.508zm22.836 15.543l24.207 13.975-48.559 28.2zm-56.349 42.817l-13.369-23.28 25.889-44.841 19.975 11.533zm-14.125-26.055l.12-57.38 24.756 14.293zm27.665-100.711l19.975-11.533 22.386 38.984h-26.512zm-11.83-70.887h26.987l25.887 44.837-20.374 11.762zm30.268 1.6l48.944 28.031-24.571 14.186zm-3.281-3.573h-26.987l32.5-56.6 20.373 11.763zm27.655-43.816l24.207 13.976-48.559 28.2zm-56.342 42.824l-13.374-23.289 25.889-44.841 19.978 11.535zm-14.132-26.068l.12-57.381 24.756 14.293zm43.514-71.286h26.508l-22.382 38.986-19.974-11.532zm28.215.991l13.56 23.614.151-.087-15.714 27.217-20.377-11.765zm1.707-.991h45.547v23.3h-32.169zm45.547 25.338v29.048l-22.268 12.933-25.221-14.561 15.829-27.417-.824-1.429.825 1.429zm-1.838 90.667l-28.889-16.678 28.889-16.679zm-1.021 1.769l-19.1 11.028-51.477-29.482 51.1-29.684 19.472 11.242-31.952 18.448zm2.86 82.854v23.3h-32.169l-13.383-23.295zm0 25.339v29.044l-22.268 12.934-25.221-14.559 15.829-27.417-.824-1.429.825 1.429zm-1.838 90.668l-28.889-16.678 28.889-16.679zm-1.021 1.769l-19.1 11.028-51.477-29.481 51.1-29.683 19.472 11.242-31.952 18.448zm-44.963 82.854zm47.823 0v23.3h-32.169l-13.384-23.296zm-33.543 24.519l-15.714 27.217-20.41-11.783 22.412-38.961 13.56 23.614zm-37.833 14.446l-19.942-11.513 15.849-27.452h26.507zm-21.71-12.534l-25.438-14.687.053-25.492 25.385-14.656 15.83 27.417zm-25.381-42.539l.117-56.053 24.242 41.989zm24.359 44.307l-24.545 42.511.118-56.607zm-77.6-130.487v-23.3h51.769l13.378 23.3zm34.811-99.328l-1.839-1.062 17.954-10.365-.049 22.827-17.906-10.338zm-34.811 73.989v-28.492l49.749 28.492zm0-30.767v-21.945l31.952 18.447v-36.89l18.921 10.925-.123 58.534zm1.021-23.713l28.888-16.679v33.358zm-1.021-40.786v-22.57l51.056-29.655-.125 59.715-18.979 10.958v-36.895zm29.909-14.91v33.358l-28.888-16.679zm-29.909-9.942v-27.859h47.963zm0-29.9v-23.3h66.281l33.068 57.586-19.979 11.535-26.457-45.824h-.317c-.02-.013-.036-.031-.056-.043a.987.987 0 00-.989 0l-.072.042zm0-25.271v-23.3h51.769l13.378 23.3zM919.808 26.81l-.125 59.715-18.981 10.958V60.588L868.75 79.035v-22.57zM868.75 54.183V26.324h47.963zm29.909 9.942v33.358l-28.888-16.679zm0 39.017V136.5l-28.888-16.679zm4.9-2.83l-1.839-1.062 17.957-10.367-.049 22.826-17.906-10.338 1.839-1.062zm-34.811 73.989v-28.492l49.748 28.492zm0-30.767v-21.945l31.952 18.447v-36.895l18.921 10.925-.123 58.534zm0-25.481v-2.123l-1.841 1.063V83.635l1.838 1.062v-2.123l28.889 16.679-1.839 1.062 1.839 1.062zm99.349-59.482l-19.979 11.535-26.455-45.823h-.317c-.02-.013-.036-.031-.056-.043a.987.987 0 00-.989 0l-.072.042H868.75V.982h66.281zm23.4 40.755h-26.512l-15.849-27.451 19.975-11.533zm25.018-68.71l-24.571 14.186L967.57 2.585zm2.05 1.174l21.889 12.536v29.661h-31.659l-1.179 2.042h32.838v23.3h-46.68l-22.953-39.971 20.377-11.764 16.419 28.438 1.178-2.042-15.829-27.417zm22.438-13.589l-.549.951-.409.708-1.429 2.476 1.838-1.062V42.05l-19.911-11.4 18.073-10.434v2.123l2.042-3.537zm1.492 166.808v-2.122l28.889 16.679-1.839 1.062 1.839 1.061-28.889 16.679v-2.122l-2.042 3.536-.409.708-1.429 2.476 1.838-1.062v20.779l-19.905-11.4 18.072-10.434v2.123l2.042-3.537.409-.708 1.43-2.476-1.839 1.061v-33.358zm0 194.97v-22.57l51.056-29.655-.125 59.715-18.979 10.958v-36.894zm29.909-14.91v33.357l-28.888-16.679zm0 39.017v33.357l-28.888-16.678zm4.9-2.83l-1.838-1.062 17.953-10.366-.047 22.827-17.906-10.338 1.838-1.061zm-34.811-46.13v-27.859h47.963zm0-29.9v-23.3h66.281l33.068 57.586-19.979 11.535-26.457-45.824h-.317c-.02-.014-.035-.032-.057-.044a.987.987 0 00-.989 0l-.072.042zm169.87 154.007l1.4 2.42-1.4-2.42v2.122l-18.456-10.655 20.3-11.789v21.384zm3.88 1.061v-22.57l51.056-29.655-.126 59.715-18.979 10.958v-36.895zm29.91-14.91v33.358l-28.888-16.679zm0 39.017v33.358l-28.882-16.676zm4.9-2.83l-1.838-1.062 17.953-10.365-.048 22.826-17.906-10.338zm-34.811-46.13v-27.858h47.962zm0-29.9v-23.3h66.281l33.068 57.586-19.979 11.535-26.457-45.824h-.317c-.02-.013-.035-.031-.056-.043a.987.987 0 00-.989 0l-.073.042zm138.87 51.747h32.837v23.3h-46.68l-22.953-39.971 20.376-11.764 16.419 28.438 1.178-2.042-15.829-27.417 25.6-14.78 21.888 12.536v29.661h-31.659zm29.978-57.583l-19.1 11.028-51.477-29.481 51.1-29.683 19.473 11.242-31.952 18.448zm-27.868-18.447l28.888-16.679v33.358zm-62.359-328.362l15.829 27.417-15.829 27.417-25.772-14.88.052-25.106zm-25.706 12.487l.119-56.822 24.575 42.565zm-1.851-58.573l-.126 59.715-18.978 10.958V60.588l-31.952 18.447v-22.57zm-51.056 27.373V26.324h47.963zm0 89.352V121.59l31.952 18.447v-36.895l18.921 10.925-.123 58.534zm49.748 30.767h-49.748V145.81zm-14.937-73.989l-1.838-1.062 17.953-10.365-.048 22.826-17.906-10.338 1.838-1.062zm-33.79 19.509l28.888-16.679v33.358zm28.888-55.7v33.361l-28.888-16.679zm21.859 112.219l13.378 23.3h-65.146v-23.3zm-51.769 103.321v-22.57l51.056-29.655-.126 59.715-18.979 10.958v-36.895zm29.91-14.91v33.358l-28.888-16.679zm0 39.017v33.358l-28.888-16.679zm4.9-2.83l-1.838-1.062 17.953-10.365-.048 22.826L1249.22 302zm-34.811-46.13V226.95h47.963zm0-29.9v-23.3h66.281l33.068 57.586-19.979 11.535-26.457-45.824h-.317c-.02-.013-.035-.031-.056-.043a.987.987 0 00-.989 0l-.072.042zm66.859 174.374l-13.373-23.289 25.889-44.841 19.978 11.535zm.57.991zm1.133 1.974h26.987l25.887 44.837-20.377 11.759zm54.195 98.341h-26.512l-15.849-27.451 19.975-11.533zm-23.927-96.742l48.945 28.032-24.571 14.186zm-20.2-130.318l15.829 27.417-15.829 27.417-25.772-14.88.052-25.106zm-25.715 12.489l.119-56.822 24.575 42.565zm43.332 15.915h26.508l-22.382 38.984-19.981-11.534zm4.818 41.741l20.373 11.763-25.887 44.837h-26.992zm-48.333 29.545l.121-57.38 24.756 14.293zm42.819-173.575h-26.992l32.5-56.6 20.373 11.763zm27.655-43.816l24.206 13.976-48.559 28.2zm-22.839-15.545l-19.975-11.532 15.849-27.451h26.508zm-33.508 58.368l-13.374-23.289 25.889-44.841 19.978 11.535zm.569.991zm-14.7-27.055l.12-57.381 24.756 14.293zm27.665-100.711l19.975-11.533 22.386 38.984h-26.512zm44.066 30.417l13.56 23.614.151-.087-15.714 27.217-20.377-11.765zm1.708-.991h45.546v23.3h-32.168zm45.546 25.338v29.043l-22.267 12.933-25.221-14.561 15.829-27.417-.825-1.429.825 1.429zm-2.859 55.541l-30.242 17.46h-38.653l49.416-28.7zm-21.08 49.065l-24.57 14.186-24.374-42.217zm-26.339 15.207l-20.376 11.762-32.5-56.6h26.987zm1.321 53.5h-26.512l-15.849-27.451 19.975-11.533zm1.7 2.965l13.56 23.614.151-.087-15.714 27.217-20.377-11.764zm-1.255 53.533l24.205 13.975-48.558 28.2zm.687 146.1zm47.822 0v23.3h-32.168l-13.378-23.3zm-33.542 24.519l-15.714 27.217-20.395-11.765 22.394-38.971 13.56 23.614zm-37.815 14.457l-19.96-11.524 15.849-27.452h26.508zm-21.728-12.545l-25.772-14.88.052-25.106 25.72-14.85 15.829 27.417zm-25.715-42.346l.119-56.822 24.575 42.565zm24.694 44.114l-24.876 43.087.12-57.381zm-77.6-130.487v-23.3h51.769l13.378 23.3zm0-25.338v-28.492L1266 374.925zm0-30.767v-21.945l31.952 18.447v-36.887l18.921 10.925-.123 58.534zm0-25.482v-2.123l-2.042 3.537-.409.708-1.431 2.485 1.838-1.062v20.776l-19.91-11.4 18.072-10.434v2.12l2.042-3.537.409-.708 1.43-2.476-1.839 1.062v-33.358l1.839 1.062-1.43-2.476-.409-.708-2.042-3.536v2.123l-18.463-10.66 20.3-11.788v21.384l-1.838-1.062 1.429 2.476.409.708 2.042 3.537v-2.123l28.889 16.679-1.839 1.062 1.839 1.062zm-34.88-142.339h32.835v23.3h-46.68l-22.953-39.971 20.376-11.764 16.419 28.439 1.179-2.042-15.828-27.416 25.6-14.78 21.889 12.537v29.661h-31.659zm29.978-57.583l-19.1 11.028-51.476-29.482 51.105-29.683 19.472 11.242-31.952 18.447zm-27.868-18.448l28.889-16.679v33.358zm-41.633 58.577l-19.979 11.535-26.457-45.824h-.317c-.02-.014-.035-.031-.057-.044a.987.987 0 00-.989 0l-.072.042h-51.479v-23.3h66.281zm-31.926-59.56zm-67.423 80.024v-22.564l51.056-29.655-.125 59.715-18.979 10.958v-36.895zm29.909-14.91v33.358l-28.888-16.679zm0 39.017v33.358l-28.888-16.678zm4.9-2.829l-1.838-1.062 17.953-10.366-.047 22.826-17.906-10.338zm-34.811-46.13v-27.859h47.963zm78.622 219.342l15.83 27.417-15.83 27.417-25.772-14.88.052-25.106zm-25.713 12.492l.119-56.822 24.574 42.565zm85.963-9.355h32.837v23.3h-46.68l-22.953-39.971 20.376-11.764 16.419 28.439 1.179-2.042-15.829-27.417 25.6-14.78 21.889 12.537v29.661h-31.659zm29.978-57.583l-19.1 11.028-51.476-29.481 51.105-29.684 19.472 11.243-31.952 18.446zm-27.868-18.448l28.889-16.679v33.358zm-16.527-98.336l13.56 23.614.151-.086-15.714 27.217-20.38-11.767zm-.569-.991zm-45.263-28.4l15.83 27.417-15.83 27.417-25.772-14.88.052-25.106zm-25.714 12.484l.119-56.822 24.574 42.565zm43.332 15.916h26.507l-22.385 38.982-19.972-11.531zm-15.849-29.426l19.975-11.532 22.386 38.984h-26.512zm42.808 83.95l24.209 13.976-48.559 28.2zm24.571 75.421l-24.571 14.185-24.374-42.216zm-23.884 70.684zm.569.991l13.56 23.614.151-.087-15.714 27.22-20.377-11.765zm47.254-.991v23.3h-32.169l-13.378-23.3zm0 25.338v29.045l-22.268 12.934-25.221-14.561 15.829-27.417-.825-1.429.825 1.429zm-24.301 43.161l-48.558 28.2 24.352-42.18zm-51.864 29.839h-26.982l32.5-56.6 20.373 11.762zm4.821-59.358l-19.974-11.532 15.849-27.451h26.507zm-19.974-68.408l19.975-11.534 22.386 38.984h-26.512zm-11.834-70.89h26.987l25.887 44.837-20.372 11.762zm0-1.974l32.5-56.6 20.376 11.764-25.887 44.837zm-1.7-1l-13.369-23.28 25.889-44.842 19.975 11.533zm-14.125-26.055l.12-57.38 24.756 14.293zm15.832-171.6h26.987l25.887 44.837-20.372 11.762zm30.268 1.6l48.944 28.031-24.571 14.185zm-30.266-3.573l32.26-56.737 20.612 11.9-25.887 44.837zm54.64-43.816l24.202 13.974-48.559 28.2zm48.51 146.1v23.3h-32.169l-13.378-23.3zm0 25.338v29.045l-22.268 12.934-25.221-14.561 15.829-27.417-.825-1.428.825 1.429zm-1.838 291.3l-28.889-16.679 28.889-16.679zm-1.021 1.769l-19.1 11.028-51.476-29.482 51.105-29.684 19.472 11.243-31.96 18.452zm-21.08 12.17l-24.571 14.185-24.374-42.217zm-26.339 15.206l-20.372 11.762-32.5-56.6h26.987zm-54.577-47.8l-13.373-23.288 25.889-44.842 19.978 11.535zm-14.129-26.063l.12-57.381 24.756 14.293zm-52.725-173.575v-23.3h51.768l13.378 23.3zm0-25.339v-28.492l49.748 28.492zm0-30.767v-21.945l31.952 18.448v-36.895l18.921 10.924-.123 58.534zm0-198.354l49.748 28.492h-49.748zm29.909-9.31l-28.888-16.678 28.888-16.679zm20.964-22.433l-.129 58.532-50.75-29.066V21.272l31.952 18.448V2.825zm.9 62.276l13.378 23.3h-65.146v-23.3zm25.833-46.845l-24.876 43.087.12-57.381zm1.769 1.02l19.74 11.4-32.257 56.731-13.372-23.286zM1164.707.983l-22.084 38.841-19.728-11.39L1138.744.983zm1.136 0zm.571.994l13.881 24.174-15.34 26.568-20.623-11.907zm47.8 22.3h-32.715l-13.378-23.3h46.086zm0 31.087l-22.268 12.934-25.221-14.561 15.829-27.417-.608-1.052.608 1.052h31.653zm0 25.79l2.042 3.537v-2.123l28.889 16.679-1.839 1.062 1.839 1.062-28.889 16.679v-2.123l-2.042 3.537-.409.708-1.429 2.476 1.838-1.062v20.776l-19.911-11.4 18.073-10.434v2.123l2.042-3.537.409-.708 1.43-2.476-1.839 1.062V83.634l1.839 1.062-1.43-2.476-.409-.708-2.042-3.536v2.123l-18.469-10.657 20.3-11.789v21.384l-1.838-1.061 1.429 2.476.409.708zM1282.536.981l33.068 57.586-19.979 11.535-26.462-45.819h-.317c-.02-.013-.035-.031-.056-.043a.987.987 0 00-.989 0l-.072.042h-51.479V.982zm29.263 0l25.887 44.837-20.379 11.765-32.5-56.6zm52.225 29.63l-24.57 14.186L1315.08 2.58zm2.05 1.174l21.888 12.536v29.661h-31.659l-1.178 2.042h32.837v23.3h-46.68l-22.953-39.971 20.376-11.764 16.419 28.438 1.178-2.042-15.829-27.417zm22.438-13.589l-.549.951-.409.708-1.429 2.476 1.838-1.062v20.776l-19.911-11.4 18.073-10.434v2.123l2.042-3.537zm-2.388 160.087v2.123l-18.458-10.657 20.3-11.789v21.384l-1.838-1.062 1.429 2.476.409.708.354.613-.151-.261zm0 39.017l-28.888-16.678 28.888-16.679zm-20.122 12.8l-49.742-28.489h38.6l30.242 17.46zm21.96 69.852h-46.68l-22.957-39.969 20.376-11.764 16.419 28.438 1.178-2.042-15.829-27.417 25.6-14.78 21.888 12.536v29.661h-31.659l-1.178 2.042h32.837zm0 25.271h-32.168l-13.378-23.3h45.546zm0 31.086l-22.267 12.934-25.225-14.56 15.829-27.417-.825-1.429.825 1.429h31.659zm.2 26.143l-2.042-3.537v2.123l-18.458-10.655 20.3-11.788v21.388l-1.838-1.062 1.429 2.476.409.708.4.691zm-.2 37.956l-.409.708-1.429 2.476 1.838-1.061v20.776l-19.91-11.4 18.072-10.434v2.123l2.042-3.537.346-.6zm-47.488 134.9l15.829-27.417-.825-1.429.825 1.429h31.659v29.044l-22.267 12.934zm-25.373 43.948l24.353-42.18 24.206 13.976zm-30.332 1.636l32.529-56.608 20.387 11.771-25.887 44.837zm-1.7-1l-13.332-23.281 25.891-44.843 19.964 11.526zm-66.811-22.3h51.766l13.341 23.3h-65.107zm0-30.534l49.748 28.492h-49.748zm0-24.22l31.952 18.447V504.39l18.921 10.925-.123 58.534-50.751-29.066zm0-5.66l-2.042 3.537-.409.708-1.429 2.476 1.838-1.062v20.776l-19.91-11.4 18.072-10.434v2.123l2.042-3.537.409-.708 1.43-2.476-1.839 1.062v-33.358l1.839 1.062-1.43-2.476-.409-.708-.582-1.007.378.655 2.042 3.537v-2.123l28.889 16.679-1.839 1.062 1.839 1.062-28.889 16.679zm-48.722 83.71l-22.953-39.971 20.376-11.764 16.419 28.439 1.179-2.042-15.829-27.417 25.6-14.78 21.889 12.536v29.662h-31.659l-1.179 2.042h32.828v23.3zm-44.638-27.451l19.975-11.532 22.386 38.983h-26.512zm-27.483 13.51l.119-56.822 24.574 42.565zm-51.886-4.58l28.888-16.678v33.357zm-1.021-24.338l51.056-29.655-.125 59.715-18.979 10.958v-36.884l-31.952 18.448zm0-30.142h47.963l-47.963 27.859zm0-25.339h66.28l33.069 57.586-19.987 11.549-26.457-45.824h-.317a.682.682 0 00-.056-.043.985.985 0 00-.989 0l-.072.042H1042.5zm0-25.271h51.768l13.378 23.3h-65.146zm0-30.533l49.748 28.492h-49.748zm0-24.22l31.952 18.448v-36.889l18.921 10.924-.123 58.534-50.75-29.066zm0-5.659l-1.839 1.062v-33.344l1.839 1.061v-2.123l28.889 16.679-1.839 1.062 1.839 1.061-28.889 16.679zm-2.042 3.536l-.409.708-1.429 2.476 1.838-1.061V443.3l-19.911-11.4 18.072-10.434v2.123l2.042-3.537.346-.6zm-47.489 134.9l15.829-27.417-.824-1.429.825 1.429h31.659v29.044l-22.268 12.934zm-25.373 43.948l24.352-42.18 24.207 13.976zm-30.392 1.637l32.562-56.603 20.406 11.782-25.887 44.837zm-1.139 0zm-.569-.99l-13.32-23.2 25.943-44.934 19.944 11.515zm-66.747-22.306h51.65l13.377 23.3h-65.039zm0-30.051l48.9 28.009h-48.9zm0-24.7l31.952 18.447v-36.895l19.255 11.117-.124 59.015-51.09-29.24zm-1.85-37.945l1.838 1.062v-2.123l28.889 16.679-1.839 1.062 1.839 1.062-28.889 16.679v-2.123l-1.805 3.127.376-.65 1.43-2.476-1.839 1.059zm1.838-199.568l-1.43-2.476-.409-.708-2.042-3.536v2.123l-18.457-10.658 20.3-11.788v21.383l-1.838-1.062 1.429 2.476.409.708 2.042 3.537v-2.123l28.889 16.679-1.839 1.062 1.839 1.062-28.888 16.678v-2.123l-1.843 1.062v-33.358zm-1.885 235.128l-.157.273-.409.708-1.429 2.476 1.838-1.062v21.259l-20.331-11.644 18.493-10.676v2.123zM820.023 600.9l-22.953-39.971 20.377-11.764 16.419 28.439 1.178-2.042-15.829-27.417 25.179-14.537 22.313 12.775v29.178h-31.659l-1.179 2.042h32.838v23.3zm-44.638-27.451l19.975-11.532 22.386 38.983h-26.512zm-27.478 13.509l.119-56.822 24.574 42.565zm-23 12.1l-28.886-16.675 28.886-16.683z"/></svg>